<svg height="480pt" viewBox="0 0 480 480" width="480pt" xmlns="http://www.w3.org/2000/svg"><path d="m472 368h-24v-225.136719c15.097656-3.867187 25.199219-18.070312 23.898438-33.601562-1.304688-15.535157-13.625-27.855469-29.160157-29.160157-15.53125-1.300781-29.734375 8.800782-33.601562 23.898438h-33.136719v-56h16c4.417969 0 8-3.582031 8-8v-32c0-4.417969-3.582031-8-8-8h-112c-4.417969 0-8 3.582031-8 8v32c0 4.417969 3.582031 8 8 8h16v56h-128v-56h16c4.417969 0 8-3.582031 8-8v-32c0-4.417969-3.582031-8-8-8h-112c-4.417969 0-8 3.582031-8 8v32c0 4.417969 3.582031 8 8 8h16v56h-88v16h88v30.398438c-40.164062 13.328124-71.175781 45.597656-82.894531 86.257812-.15625.40625-.277344.828125-.363281 1.253906-13.289063 48.046875 2.535156 99.441406 40.550781 131.6875s91.304687 39.476563 136.539062 18.523438 74.179688-66.269532 74.167969-116.121094c-.027344-11.523438-1.625-22.992188-4.742188-34.089844-.085937-.425781-.207031-.847656-.363281-1.253906-11.71875-40.660156-42.730469-72.929688-82.894531-86.257812v-30.398438h128v208c0 22.089844 17.910156 40 40 40s40-17.910156 40-40v-208h33.136719c2.925781 11.195312 11.667969 19.9375 22.863281 22.863281v225.136719h-24c-4.417969 0-8 3.582031-8 8v56h-392c-4.417969 0-8 3.582031-8 8v32c0 4.417969 3.582031 8 8 8h464c4.417969 0 8-3.582031 8-8v-96c0-4.417969-3.582031-8-8-8zm-232-96c.175781 43.019531-24.304688 82.339844-62.988281 101.164062-38.679688 18.824219-84.726563 13.832032-118.472657-12.847656-33.746093-26.683594-49.230468-70.335937-39.835937-112.316406h218.59375c1.769531 7.878906 2.675781 15.925781 2.703125 24zm-7.519531-40h-208.960938c12.683594-33.214844 40.363281-58.445312 74.609375-68 3.457032-.953125 5.855469-4.09375 5.871094-7.679688v-108.320312h48v108.320312c0 3.597657 2.402344 6.753907 5.871094 7.710938 34.238281 9.550781 61.917968 34.769531 74.609375 67.96875zm-152.480469-200v-16h96v16zm280 296c0 13.253906-10.746094 24-24 24s-24-10.746094-24-24v-8h24v-16h-24v-32h24v-16h-24v-32h24v-16h-24v-32h24v-16h-24v-16h48zm0-200h-48v-80h48zm-72-96v-16h96v16zm136 80c0-8.835938 7.164062-16 16-16s16 7.164062 16 16-7.164062 16-16 16-16-7.164062-16-16zm40 352h-448v-16h448zm0-32h-48v-48h48zm0 0"/></svg>