<svg height="512pt" viewBox="-127 0 512 512" width="512pt" xmlns="http://www.w3.org/2000/svg"><path d="m218 0h-24.167969c-4.140625 0-7.5 3.355469-7.5 7.5s3.359375 7.5 7.5 7.5h24.167969c13.234375 0 24 10.765625 24 24v14.5c0 13.234375-10.765625 24-24 24h-179c-13.234375 0-24-10.765625-24-24v-14.5c0-13.234375 10.765625-24 24-24h126.832031c4.144531 0 7.5-3.355469 7.5-7.5s-3.355469-7.5-7.5-7.5h-126.832031c-21.503906 0-39 17.496094-39 39v14.5c0 21.503906 17.496094 39 39 39h.25v277.777344c0 4.144531 3.355469 7.5 7.5 7.5s7.5-3.355469 7.5-7.5v-277.777344h147.25v21.777344h-37.832031c-4.144531 0-7.5 3.359375-7.5 7.5 0 4.144531 3.355469 7.5 7.5 7.5h37.832031v37.5h-37.832031c-4.144531 0-7.5 3.359375-7.5 7.5 0 4.144531 3.355469 7.5 7.5 7.5h37.832031v37.5h-37.832031c-4.144531 0-7.5 3.359375-7.5 7.5 0 4.144531 3.355469 7.5 7.5 7.5h37.832031v37.5h-37.832031c-4.144531 0-7.5 3.359375-7.5 7.5 0 4.144531 3.355469 7.5 7.5 7.5h37.832031v37.5h-37.832031c-4.144531 0-7.5 3.359375-7.5 7.5 0 4.144531 3.355469 7.5 7.5 7.5h37.832031v37.5h-37.832031c-4.144531 0-7.5 3.359375-7.5 7.5 0 4.144531 3.355469 7.5 7.5 7.5h37.832031v31.597656c0 40.597656-33.027344 73.625-73.625 73.625s-73.625-33.027344-73.625-73.625v-25.097656c0-4.140625-3.355469-7.5-7.5-7.5s-7.5 3.359375-7.5 7.5v25.097656c0 48.867188 39.757812 88.625 88.625 88.625s88.625-39.757812 88.625-88.625v-330.875h1.5c21.503906 0 39-17.496094 39-39v-14.5c0-21.503906-17.496094-39-39-39zm0 0"/></svg>